<svg xmlns="http://www.w3.org/2000/svg" xmlns:xlink="http://www.w3.org/1999/xlink" viewBox="0 0 1280 1084"><defs><style>.cls-1{fill:none;stroke:#0054af;stroke-miterlimit:10;}.cls-2{fill:url(#linear-gradient);}</style><linearGradient id="linear-gradient" x1="640" y1="661.76" x2="640" y2="371.98" gradientUnits="userSpaceOnUse"><stop offset="0" stop-color="#10b54a"/><stop offset="0.18" stop-color="#179e5f"/><stop offset="0.54" stop-color="#227584"/><stop offset="0.83" stop-color="#295c9b"/><stop offset="1" stop-color="#2c53a3"/></linearGradient></defs><title>Artboard 6</title><g id="Iceland"><g id="Logo"><path class="cls-1" d="M107.15,659.51l55.41-260.39q-25.46,10.48-39.5,31.45T109,482.8a68.07,68.07,0,0,0,.84,11.89,51.92,51.92,0,0,0,1.78,7.3,26.51,26.51,0,0,0,1.78,4.21,5.54,5.54,0,0,1,.84,2.62,71.2,71.2,0,0,1-17.6-2,32,32,0,0,1-12.82-6.27A27.11,27.11,0,0,1,76,489.17q-2.72-7.11-2.71-17.6a60.92,60.92,0,0,1,5.52-25.08A93.68,93.68,0,0,1,94,423.09a132.88,132.88,0,0,1,22.65-20.4,167,167,0,0,1,59-26.86A139.67,139.67,0,0,1,207.86,372q4.3,0,8,.19t7.39.56l-61,286.78Z"/><path class="cls-1" d="M375,590.81A219.26,219.26,0,0,1,356.59,617a138.52,138.52,0,0,1-23.4,22.65,115.75,115.75,0,0,1-28.83,16,96,96,0,0,1-34.72,6.08,82.4,82.4,0,0,1-24.71-3.46A48.78,48.78,0,0,1,226,647.53a47.34,47.34,0,0,1-12.07-18.81q-4.21-11.51-4.21-27.8A169.46,169.46,0,0,1,212,575.37a187.93,187.93,0,0,1,7.21-29.67,177.31,177.31,0,0,1,12.92-29.76,111.65,111.65,0,0,1,19.47-26,93.06,93.06,0,0,1,26.68-18.44q15.16-7,34.63-7,12.73,0,21,3.09a35.53,35.53,0,0,1,13.1,8,26.81,26.81,0,0,1,6.74,11.33,45,45,0,0,1,1.87,12.73A41.8,41.8,0,0,1,354,511.91a26.53,26.53,0,0,1-4.4,8.7,17.44,17.44,0,0,1-6.55,5.24,19,19,0,0,1-7.86,1.68q-6.55,0-13.48-4.49,4.68-12.35,4.68-22.65,0-7.11-2.62-11.42a8.78,8.78,0,0,0-8-4.31q-6,0-12,5.43a65.8,65.8,0,0,0-11.51,14.41A137.48,137.48,0,0,0,282,525.11a223.7,223.7,0,0,0-8.14,24.15,226.46,226.46,0,0,0-5.43,25,148.87,148.87,0,0,0-2,23.12,59.92,59.92,0,0,0,1.78,16,22.64,22.64,0,0,0,5.24,9.83,18.56,18.56,0,0,0,8.61,5,46.17,46.17,0,0,0,12.07,1.4,67,67,0,0,0,20.68-3,72.32,72.32,0,0,0,17.32-8.24A97.26,97.26,0,0,0,347.42,606q7.21-7.11,14.51-15.16Z"/><path class="cls-1" d="M522.16,590.81A219.26,219.26,0,0,1,503.72,617a138.52,138.52,0,0,1-23.4,22.65,115.75,115.75,0,0,1-28.83,16,96,96,0,0,1-34.72,6.08,82.4,82.4,0,0,1-24.71-3.46,48.78,48.78,0,0,1-18.91-10.76,47.34,47.34,0,0,1-12.07-18.81q-4.21-11.51-4.21-27.8a167.67,167.67,0,0,1,2.25-25.46,195.05,195.05,0,0,1,7.11-29.58,167.76,167.76,0,0,1,12.92-29.76A117.15,117.15,0,0,1,398.61,490a90.06,90.06,0,0,1,26.77-18.53q15.35-7,35-7,12.92,0,21.06,3.09a34,34,0,0,1,12.92,8.14,27,27,0,0,1,6.55,11.7,53,53,0,0,1,1.78,13.76,67.23,67.23,0,0,1-7.3,31,82.59,82.59,0,0,1-19.56,25,101.29,101.29,0,0,1-28.17,17.22A104.24,104.24,0,0,1,414.52,582q-.38,4.31-.66,8.14t-.28,7.21a59.92,59.92,0,0,0,1.78,16,22.64,22.64,0,0,0,5.24,9.83,18.56,18.56,0,0,0,8.61,5,46.17,46.17,0,0,0,12.07,1.4,67,67,0,0,0,20.68-3,72.32,72.32,0,0,0,17.32-8.24A97.26,97.26,0,0,0,494.55,606q7.21-7.11,14.51-15.16ZM417.52,563.67a51.36,51.36,0,0,0,21-6.18,63.77,63.77,0,0,0,17.78-14.13,70.15,70.15,0,0,0,12.26-19.84,60.16,60.16,0,0,0,4.59-23.12q0-7.11-2.06-11.42t-7.49-4.31q-7.3,0-14.32,7a80.57,80.57,0,0,0-13.2,18.25,156.58,156.58,0,0,0-11,25.36A224.41,224.41,0,0,0,417.52,563.67Z"/><path class="cls-1" d="M627.55,590.81a156.1,156.1,0,0,1-12.07,27A111.4,111.4,0,0,1,601.63,637a75.37,75.37,0,0,1-29.48,20.22,67.35,67.35,0,0,1-13.57,3.56,81.3,81.3,0,0,1-11.51.94,48.4,48.4,0,0,1-16.1-2.62,33.52,33.52,0,0,1-13-8.24,39.44,39.44,0,0,1-8.7-14.23q-3.18-8.61-3.18-20.78a98,98,0,0,1,.75-11.51q.75-6.27,2.25-13.57l41-192.06,56.72-7.67-44,207a32.62,32.62,0,0,0-1.22,6.27q-.28,3.09-.28,6.08,0,8.05,3.74,11.14t11.79,3.09a25.32,25.32,0,0,0,11-2.53,35.16,35.16,0,0,0,9.83-7,49.94,49.94,0,0,0,8-10.76,67.92,67.92,0,0,0,5.8-13.57Z"/><path class="cls-1" d="M829.16,590.81a172.45,172.45,0,0,1-11.79,27A113.94,113.94,0,0,1,804.17,637a74.4,74.4,0,0,1-13.95,12.73,69,69,0,0,1-13.85,7.49,60.94,60.94,0,0,1-12.92,3.56,75.64,75.64,0,0,1-11.23.94q-16.29,0-25.93-8.89t-11.7-26.3a149.23,149.23,0,0,1-10.3,12.82,76.76,76.76,0,0,1-12.54,11.23,63.59,63.59,0,0,1-15.44,8,54.85,54.85,0,0,1-18.81,3.09,57.84,57.84,0,0,1-19.09-3.18,41.53,41.53,0,0,1-16.29-10.48Q615,640.79,610.7,629t-4.31-28.83A163.44,163.44,0,0,1,609,572.09a177.72,177.72,0,0,1,8-30,170.13,170.13,0,0,1,13.57-28.73,115.15,115.15,0,0,1,19.09-24.34,87.26,87.26,0,0,1,24.8-16.85A73.13,73.13,0,0,1,705.05,466q16.29,0,23.68,5.62t7.39,13.85v2.81l4.12-20.4h55.22L767.95,598.11a38.56,38.56,0,0,0-1.31,6.27,50.29,50.29,0,0,0-.37,6.08q0,16.47,15.72,16.47a19.62,19.62,0,0,0,10.39-2.9,33.76,33.76,0,0,0,8.7-7.77A52.64,52.64,0,0,0,808,604.76a100.11,100.11,0,0,0,5.05-13.95Zm-96.59-86.48a15.44,15.44,0,0,0-.75-4.21,15.19,15.19,0,0,0-2.53-4.87,14.34,14.34,0,0,0-4.77-3.93,16.31,16.31,0,0,0-7.67-1.59A25.51,25.51,0,0,0,701.59,495a56.76,56.76,0,0,0-13.2,13.95,111.26,111.26,0,0,0-10.67,19.75,191.81,191.81,0,0,0-12.92,45.77,139.49,139.49,0,0,0-1.68,20.31q0,11,2.06,17t5,8.89a11.53,11.53,0,0,0,6.27,3.46,36.88,36.88,0,0,0,6,.56,22.1,22.1,0,0,0,9.08-2.15,32.88,32.88,0,0,0,9.17-6.36,46.65,46.65,0,0,0,8-10.58,52.43,52.43,0,0,0,5.52-14.79Z"/><path class="cls-1" d="M1022.72,590.81q-8.05,23.59-17.32,37.63t-18.72,21.43q-9.45,7.4-18.53,9.64a70.13,70.13,0,0,1-16.75,2.25q-12.73,0-21.34-3.65a36.9,36.9,0,0,1-13.85-9.73,37.56,37.56,0,0,1-7.58-13.85,55.14,55.14,0,0,1-2.34-16A113.29,113.29,0,0,1,909,595.77q2.71-13,5.9-26.68t5.9-26.39a107.47,107.47,0,0,0,2.71-21.9q0-19.66-13.85-19.66a18,18,0,0,0-9.73,2.81,32.27,32.27,0,0,0-8.24,7.58,56.83,56.83,0,0,0-6.74,11.23,108.43,108.43,0,0,0-5.24,13.76l-26,123H798.46l40.62-191.69H894.3l-4.12,19.84a70.54,70.54,0,0,1,12.26-11.14,57.48,57.48,0,0,1,11.89-6.46,50.73,50.73,0,0,1,11-3,67.36,67.36,0,0,1,9.64-.75,57.39,57.39,0,0,1,17,2.43,33.87,33.87,0,0,1,22.46,21.15,54.56,54.56,0,0,1,3.18,19.66,106.6,106.6,0,0,1-1.4,16.57q-1.4,8.89-3.46,18.16t-4.4,18.44q-2.34,9.17-4.4,17.6T960.48,596a67.18,67.18,0,0,0-1.4,12.64q0,7.12,3.28,11.61t12.07,4.49a23.2,23.2,0,0,0,10.86-2.43,27.48,27.48,0,0,0,8.42-6.93,54,54,0,0,0,6.83-10.76q3.09-6.27,6.08-13.76Z"/><path class="cls-1" d="M1150,398.75l56.72-7.67-44,207a40.63,40.63,0,0,0-1.31,5.9,38.83,38.83,0,0,0-.37,5.34,17.47,17.47,0,0,0,3.37,11q3.37,4.4,12.35,4.4a29.39,29.39,0,0,0,7.86-.75,37.27,37.27,0,0,0,4.49-1.68,45.27,45.27,0,0,1-4.59,17.69,39.52,39.52,0,0,1-9.64,12.26,38.43,38.43,0,0,1-13.1,7.21,48.21,48.21,0,0,1-14.79,2.34,52.69,52.69,0,0,1-13.85-1.78,35.47,35.47,0,0,1-11.79-5.62,33.35,33.35,0,0,1-8.89-9.92,45.25,45.25,0,0,1-5.34-14.51,117.83,117.83,0,0,1-9.92,11.89,71.26,71.26,0,0,1-12.17,10.2,60,60,0,0,1-14.79,7.11,56.58,56.58,0,0,1-17.6,2.62,57.84,57.84,0,0,1-19.09-3.18,41.53,41.53,0,0,1-16.29-10.48q-7.12-7.3-11.42-19.09t-4.31-28.83a163.44,163.44,0,0,1,2.62-28.08,177.72,177.72,0,0,1,8-30,170.13,170.13,0,0,1,13.57-28.73,115.15,115.15,0,0,1,19.09-24.34,87.26,87.26,0,0,1,24.8-16.85,73.13,73.13,0,0,1,30.51-6.27q16.29,0,23.68,5.62t7.39,13.85v1.5Zm-41,192.06L1127.73,503a30.16,30.16,0,0,0-1.22-3.93,16.65,16.65,0,0,0-2.53-4.4,12.76,12.76,0,0,0-4.59-3.56,17,17,0,0,0-7.39-1.4,25.51,25.51,0,0,0-15.26,5.24,56.76,56.76,0,0,0-13.2,13.95,111.26,111.26,0,0,0-10.67,19.75A191.81,191.81,0,0,0,1060,574.43a139.49,139.49,0,0,0-1.68,20.31q0,11,2.06,17t5,8.89a11.53,11.53,0,0,0,6.27,3.46,36.88,36.88,0,0,0,6,.56,21.54,21.54,0,0,0,8.24-1.78,32.3,32.3,0,0,0,8.42-5.24,41.17,41.17,0,0,0,7.58-8.61,48.1,48.1,0,0,0,5.71-12.07Z"/><path class="cls-2" d="M107.15,659.51l55.41-260.39q-25.46,10.48-39.5,31.45T109,482.8a68.07,68.07,0,0,0,.84,11.89,51.92,51.92,0,0,0,1.78,7.3,26.51,26.51,0,0,0,1.78,4.21,5.54,5.54,0,0,1,.84,2.62,71.2,71.2,0,0,1-17.6-2,32,32,0,0,1-12.82-6.27A27.11,27.11,0,0,1,76,489.17q-2.72-7.11-2.71-17.6a60.92,60.92,0,0,1,5.52-25.08A93.68,93.68,0,0,1,94,423.09a132.88,132.88,0,0,1,22.65-20.4,167,167,0,0,1,59-26.86A139.67,139.67,0,0,1,207.86,372q4.3,0,8,.19t7.39.56l-61,286.78Z"/><path class="cls-2" d="M375,590.81A219.26,219.26,0,0,1,356.59,617a138.52,138.52,0,0,1-23.4,22.65,115.75,115.75,0,0,1-28.83,16,96,96,0,0,1-34.72,6.08,82.4,82.4,0,0,1-24.71-3.46A48.78,48.78,0,0,1,226,647.53a47.34,47.34,0,0,1-12.07-18.81q-4.21-11.51-4.21-27.8A169.46,169.46,0,0,1,212,575.37a187.93,187.93,0,0,1,7.21-29.67,177.31,177.31,0,0,1,12.92-29.76,111.65,111.65,0,0,1,19.47-26,93.06,93.06,0,0,1,26.68-18.44q15.16-7,34.63-7,12.73,0,21,3.09a35.53,35.53,0,0,1,13.1,8,26.81,26.81,0,0,1,6.74,11.33,45,45,0,0,1,1.87,12.73A41.8,41.8,0,0,1,354,511.91a26.53,26.53,0,0,1-4.4,8.7,17.44,17.44,0,0,1-6.55,5.24,19,19,0,0,1-7.86,1.68q-6.55,0-13.48-4.49,4.68-12.35,4.68-22.65,0-7.11-2.62-11.42a8.78,8.78,0,0,0-8-4.31q-6,0-12,5.43a65.8,65.8,0,0,0-11.51,14.41A137.48,137.48,0,0,0,282,525.11a223.7,223.7,0,0,0-8.14,24.15,226.46,226.46,0,0,0-5.43,25,148.87,148.87,0,0,0-2,23.12,59.92,59.92,0,0,0,1.78,16,22.64,22.64,0,0,0,5.24,9.83,18.56,18.56,0,0,0,8.61,5,46.17,46.17,0,0,0,12.07,1.4,67,67,0,0,0,20.68-3,72.32,72.32,0,0,0,17.32-8.24A97.26,97.26,0,0,0,347.42,606q7.21-7.11,14.51-15.16Z"/><path class="cls-2" d="M522.16,590.81A219.26,219.26,0,0,1,503.72,617a138.52,138.52,0,0,1-23.4,22.65,115.75,115.75,0,0,1-28.83,16,96,96,0,0,1-34.72,6.08,82.4,82.4,0,0,1-24.71-3.46,48.78,48.78,0,0,1-18.91-10.76,47.34,47.34,0,0,1-12.07-18.81q-4.21-11.51-4.21-27.8a167.67,167.67,0,0,1,2.25-25.46,195.05,195.05,0,0,1,7.11-29.58,167.76,167.76,0,0,1,12.92-29.76A117.15,117.15,0,0,1,398.61,490a90.06,90.06,0,0,1,26.77-18.53q15.35-7,35-7,12.92,0,21.06,3.09a34,34,0,0,1,12.92,8.14,27,27,0,0,1,6.55,11.7,53,53,0,0,1,1.78,13.76,67.23,67.23,0,0,1-7.3,31,82.59,82.59,0,0,1-19.56,25,101.29,101.29,0,0,1-28.17,17.22A104.24,104.24,0,0,1,414.52,582q-.38,4.31-.66,8.14t-.28,7.21a59.92,59.92,0,0,0,1.78,16,22.64,22.64,0,0,0,5.24,9.83,18.56,18.56,0,0,0,8.61,5,46.17,46.17,0,0,0,12.07,1.4,67,67,0,0,0,20.68-3,72.32,72.32,0,0,0,17.32-8.24A97.26,97.26,0,0,0,494.55,606q7.21-7.11,14.51-15.16ZM417.52,563.67a51.36,51.36,0,0,0,21-6.18,63.77,63.77,0,0,0,17.78-14.13,70.15,70.15,0,0,0,12.26-19.84,60.16,60.16,0,0,0,4.59-23.12q0-7.11-2.06-11.42t-7.49-4.31q-7.3,0-14.32,7a80.57,80.57,0,0,0-13.2,18.25,156.58,156.58,0,0,0-11,25.36A224.41,224.41,0,0,0,417.52,563.67Z"/><path class="cls-2" d="M627.55,590.81a156.1,156.1,0,0,1-12.07,27A111.4,111.4,0,0,1,601.63,637a75.37,75.37,0,0,1-29.48,20.22,67.35,67.35,0,0,1-13.57,3.56,81.3,81.3,0,0,1-11.51.94,48.4,48.4,0,0,1-16.1-2.62,33.52,33.52,0,0,1-13-8.24,39.44,39.44,0,0,1-8.7-14.23q-3.18-8.61-3.18-20.78a98,98,0,0,1,.75-11.51q.75-6.27,2.25-13.57l41-192.06,56.72-7.67-44,207a32.62,32.62,0,0,0-1.22,6.27q-.28,3.09-.28,6.08,0,8.05,3.74,11.14t11.79,3.09a25.32,25.32,0,0,0,11-2.53,35.16,35.16,0,0,0,9.83-7,49.94,49.94,0,0,0,8-10.76,67.92,67.92,0,0,0,5.8-13.57Z"/><path class="cls-2" d="M829.16,590.81a172.45,172.45,0,0,1-11.79,27A113.94,113.94,0,0,1,804.17,637a74.4,74.4,0,0,1-13.95,12.73,69,69,0,0,1-13.85,7.49,60.94,60.94,0,0,1-12.92,3.56,75.64,75.64,0,0,1-11.23.94q-16.29,0-25.93-8.89t-11.7-26.3a149.23,149.23,0,0,1-10.3,12.82,76.76,76.76,0,0,1-12.54,11.23,63.59,63.59,0,0,1-15.44,8,54.85,54.85,0,0,1-18.81,3.09,57.84,57.84,0,0,1-19.09-3.18,41.53,41.53,0,0,1-16.29-10.48Q615,640.79,610.7,629t-4.31-28.83A163.44,163.44,0,0,1,609,572.09a177.72,177.72,0,0,1,8-30,170.13,170.13,0,0,1,13.57-28.73,115.15,115.15,0,0,1,19.09-24.34,87.26,87.26,0,0,1,24.8-16.85A73.13,73.13,0,0,1,705.05,466q16.29,0,23.68,5.62t7.39,13.85v2.81l4.12-20.4h55.22L767.95,598.11a38.56,38.56,0,0,0-1.31,6.27,50.29,50.29,0,0,0-.37,6.08q0,16.47,15.72,16.47a19.62,19.62,0,0,0,10.39-2.9,33.76,33.76,0,0,0,8.7-7.77A52.64,52.64,0,0,0,808,604.76a100.11,100.11,0,0,0,5.05-13.95Zm-96.59-86.48a15.44,15.44,0,0,0-.75-4.21,15.19,15.19,0,0,0-2.53-4.87,14.34,14.34,0,0,0-4.77-3.93,16.31,16.31,0,0,0-7.67-1.59A25.51,25.51,0,0,0,701.59,495a56.76,56.76,0,0,0-13.2,13.95,111.26,111.26,0,0,0-10.67,19.75,191.81,191.81,0,0,0-12.92,45.77,139.49,139.49,0,0,0-1.68,20.31q0,11,2.06,17t5,8.89a11.53,11.53,0,0,0,6.27,3.46,36.88,36.88,0,0,0,6,.56,22.1,22.1,0,0,0,9.08-2.15,32.88,32.88,0,0,0,9.17-6.36,46.65,46.65,0,0,0,8-10.58,52.43,52.43,0,0,0,5.52-14.79Z"/><path class="cls-2" d="M1022.72,590.81q-8.05,23.59-17.32,37.63t-18.72,21.43q-9.45,7.4-18.53,9.64a70.13,70.13,0,0,1-16.75,2.25q-12.73,0-21.34-3.65a36.9,36.9,0,0,1-13.85-9.73,37.56,37.56,0,0,1-7.58-13.85,55.14,55.14,0,0,1-2.34-16A113.29,113.29,0,0,1,909,595.77q2.71-13,5.9-26.68t5.9-26.39a107.47,107.47,0,0,0,2.71-21.9q0-19.66-13.85-19.66a18,18,0,0,0-9.73,2.81,32.27,32.27,0,0,0-8.24,7.58,56.83,56.83,0,0,0-6.74,11.23,108.43,108.43,0,0,0-5.24,13.76l-26,123H798.46l40.62-191.69H894.3l-4.12,19.84a70.54,70.54,0,0,1,12.26-11.14,57.48,57.48,0,0,1,11.89-6.46,50.73,50.73,0,0,1,11-3,67.36,67.36,0,0,1,9.64-.75,57.39,57.39,0,0,1,17,2.43,33.87,33.87,0,0,1,22.46,21.15,54.56,54.56,0,0,1,3.18,19.66,106.6,106.6,0,0,1-1.4,16.57q-1.4,8.89-3.46,18.16t-4.4,18.44q-2.34,9.17-4.4,17.6T960.48,596a67.18,67.18,0,0,0-1.4,12.64q0,7.12,3.28,11.61t12.07,4.49a23.2,23.2,0,0,0,10.86-2.43,27.48,27.48,0,0,0,8.42-6.93,54,54,0,0,0,6.83-10.76q3.09-6.27,6.08-13.76Z"/><path class="cls-2" d="M1150,398.75l56.72-7.67-44,207a40.63,40.63,0,0,0-1.31,5.9,38.83,38.83,0,0,0-.37,5.34,17.47,17.47,0,0,0,3.37,11q3.37,4.4,12.35,4.4a29.39,29.39,0,0,0,7.86-.75,37.27,37.27,0,0,0,4.49-1.68,45.27,45.27,0,0,1-4.59,17.69,39.52,39.52,0,0,1-9.64,12.26,38.43,38.43,0,0,1-13.1,7.21,48.21,48.21,0,0,1-14.79,2.34,52.69,52.69,0,0,1-13.85-1.78,35.47,35.47,0,0,1-11.79-5.62,33.35,33.35,0,0,1-8.89-9.92,45.25,45.25,0,0,1-5.34-14.51,117.83,117.83,0,0,1-9.92,11.89,71.26,71.26,0,0,1-12.17,10.2,60,60,0,0,1-14.79,7.11,56.58,56.58,0,0,1-17.6,2.62,57.84,57.84,0,0,1-19.09-3.18,41.53,41.53,0,0,1-16.29-10.48q-7.12-7.3-11.42-19.09t-4.31-28.83a163.44,163.44,0,0,1,2.62-28.08,177.72,177.72,0,0,1,8-30,170.13,170.13,0,0,1,13.57-28.73,115.15,115.15,0,0,1,19.09-24.34,87.26,87.26,0,0,1,24.8-16.85,73.13,73.13,0,0,1,30.51-6.27q16.29,0,23.68,5.62t7.39,13.85v1.5Zm-41,192.06L1127.73,503a30.16,30.16,0,0,0-1.22-3.93,16.65,16.65,0,0,0-2.53-4.4,12.76,12.76,0,0,0-4.59-3.56,17,17,0,0,0-7.39-1.4,25.51,25.51,0,0,0-15.26,5.24,56.76,56.76,0,0,0-13.2,13.95,111.26,111.26,0,0,0-10.67,19.75A191.81,191.81,0,0,0,1060,574.43a139.49,139.49,0,0,0-1.68,20.31q0,11,2.06,17t5,8.89a11.53,11.53,0,0,0,6.27,3.46,36.88,36.88,0,0,0,6,.56,21.54,21.54,0,0,0,8.24-1.78,32.3,32.3,0,0,0,8.42-5.24,41.17,41.17,0,0,0,7.58-8.61,48.1,48.1,0,0,0,5.71-12.07Z"/></g></g></svg>